#!OML:ASF F:\VICON\USERDATA\INSTALL\rory3\rory3.ASF
:FULLY-SPECIFIED
:DEGREES
429
root 0.215153 17.716 15.0827 1.72175 0.475591 -6.70093
lowerback 5.09299 2.3151 1.02456
upperback -0.25133 3.30027 4.46577
thorax -3.32484 1.66893 3.78198
lowerneck -16.4591 -5.38429 -13.1495
upperneck 33.4069 -5.76107 5.94546
head 14.9937 -3.31739 3.74068
rclavicle -9.96408e-015 1.27222e-014
rhumerus -26.986 -9.7145 -72.516
rradius 38.1207
rwrist -17.413
rhand -12.8212 18.6509
rfingers 7.12502
rthumb 13.2656 -10.907
lclavicle -9.96408e-015 1.27222e-014
lhumerus -39.438 8.00371 84.7166
lradius 32.0301
lwrist -7.47577
lhand 1.2554 31.1416
lfingers 7.12502
lthumb 26.7923 59.2639
rfemur 8.15454 5.38636 32.106
rtibia 18.0823
rfoot -15.2115 -6.34426
rtoes 8.70796
lfemur -31.5284 -2.60986 -10.5665
ltibia 28.0606
lfoot -12.4581 9.6342
ltoes -7.86823
430
root 0.236004 17.708 15.2614 1.94473 0.181057 -6.73512
lowerback 4.78418 2.42133 1.02165
upperback -0.118591 3.42543 4.50544
thorax -3.02403 1.73035 3.82959
lowerneck -16.7145 -5.496 -13.3019
upperneck 33.2978 -5.8688 6.03728
head 15.0267 -3.36359 3.77942
rclavicle -2.45996e-014 -2.66371e-014
rhumerus -26.4129 -9.71413 -72.5193
rradius 38.1878
rwrist -17.4328
rhand -12.8152 18.9824
rfingers 7.12502
rthumb 13.2713 -10.5751
lclavicle -2.45996e-014 -2.66371e-014
lhumerus -39.2357 8.17256 84.8074
lradius 31.7842
lwrist -7.59298
lhand 1.09139 31.0165
lfingers 7.12502
lthumb 26.6353 59.1629
rfemur 8.94683 5.36928 31.9872
rtibia 17.2703
rfoot -14.739 -5.91774
rtoes 7.40738
lfemur -31.5781 -3.62802 -10.0734
ltibia 25.8694
lfoot -12.818 11.323
ltoes -10.6792
431
root 0.256229 17.6983 15.4462 2.12069 -0.255878 -6.88905
lowerback 4.6011 2.55998 1.13187
upperback -0.123008 3.61127 4.55216
thorax -2.93349 1.82175 3.80974
lowerneck -17.1182 -5.48022 -13.2062
upperneck 33.5572 -5.80363 5.9763
head 15.2266 -3.33201 3.75257
rclavicle -6.13748e-015 -1.51076e-014
rhumerus -26.2651 -9.41537 -72.5763
rradius 38.5112
rwrist -17.7043
rhand -12.9038 19.0221
rfingers 7.12502
rthumb 13.1859 -10.5409
lclavicle -6.13748e-015 -1.51076e-014
lhumerus -39.3592 8.30561 84.7864
lradius 31.5606
lwrist -7.72349
lhand 1.11992 31.1564
lfingers 7.12502
lthumb 26.6626 59.2986
rfemur 9.63579 5.46841 31.9899
rtibia 16.9159
rfoot -14.4843 -5.4099
rtoes 7.15981
lfemur -31.5688 -4.51212 -9.38067
ltibia 24.0142
lfoot -13.9566 12.6358
ltoes -10.2271
432
root 0.275681 17.6881 15.6344 2.32871 -0.609651 -6.91357
lowerback 4.31787 2.6416 1.0596
upperback -0.166144 3.709 4.59107
thorax -2.83217 1.87245 3.89545
lowerneck -17.1997 -5.35883 -13.0079
upperneck 33.6483 -5.5835 5.7148
head 15.2413 -3.2497 3.64927
rclavicle 2.87244e-014 -1.19271e-015
rhumerus -26.1573 -8.99415 -72.6536
rradius 38.8528
rwrist -17.9307
rhand -12.8787 18.9058
rfingers 7.12502
rthumb 13.2102 -10.6556
lclavicle 2.87244e-014 -1.19271e-015
lhumerus -39.6645 8.44841 84.7362
lradius 31.4883
lwrist -7.87134
lhand 1.37372 31.2641
lfingers 7.12502
lthumb 26.9055 59.3691
rfemur 10.094 5.61661 31.8823
rtibia 16.9345
rfoot -14.3867 -4.95091
rtoes 7.3806
lfemur -31.6617 -5.08106 -8.95137
ltibia 22.5662
lfoot -15.7085 13.2946
ltoes -9.02177
433
root 0.298497 17.6769 15.8158 2.59416 -0.80142 -6.64672
lowerback 4.08943 2.67454 0.733087
upperback -0.24077 3.73095 4.5424
thorax -2.79988 1.88882 4.03548
lowerneck -17.1258 -5.30017 -12.9563
upperneck 33.529 -5.47372 5.5874
head 15.1471 -3.21208 3.60338
rclavicle 3.77691e-015 -1.78906e-014
rhumerus -25.865 -8.81259 -72.6927
rradius 38.8481
rwrist -17.8792
rhand -12.7732 19.1923
rfingers 7.12502
rthumb 13.3118 -10.3626
lclavicle 3.77691e-015 -1.78906e-014
lhumerus -39.8819 8.50782 84.7372
lradius 31.4824
lwrist -7.96113
lhand 1.74239 31.5298
lfingers 7.12502
lthumb 27.2582 59.5799
rfemur 10.2852 5.63845 31.4152
rtibia 17.1446
rfoot -14.1233 -4.31583
rtoes 8.31934
lfemur -31.8797 -5.51668 -8.95205
ltibia 21.6114
lfoot -17.0388 12.8882
ltoes -8.17468
434
root 0.319564 17.6585 15.9887 2.82603 -0.861591 -6.69229
lowerback 4.19097 2.67108 0.751791
upperback -0.522554 3.74399 4.53923
thorax -3.14807 1.89872 4.00976
lowerneck -16.7227 -5.27243 -13.1181
upperneck 33.3968 -5.52532 5.83382
head 15.0134 -3.2246 3.72782
rclavicle -1.74931e-014 -1.03368e-014
rhumerus -26.0355 -8.67326 -72.7196
rradius 38.983
rwrist -17.8166
rhand -12.7508 19.415
rfingers 7.12502
rthumb 13.3334 -10.1384
lclavicle -1.74931e-014 -1.03368e-014
lhumerus -40.2559 8.66212 84.5458
lradius 31.1869
lwrist -8.25686
lhand 2.0044 31.6933
lfingers 7.12502
lthumb 27.5088 59.7038
rfemur 10.369 5.68154 31.359
rtibia 17.5683
rfoot -13.6629 -3.87568
rtoes 8.54637
lfemur -32.1264 -5.62226 -8.7401
ltibia 21.0913
lfoot -16.7818 11.9367
ltoes -9.4617
435
root 0.337893 17.6331 16.1612 2.95219 -0.772648 -6.98542
lowerback 4.34027 2.64534 1.02962
upperback -0.710307 3.74108 4.60964
thorax -3.41366 1.89491 3.91659
lowerneck -16.4948 -5.3358 -13.3785
upperneck 33.3867 -5.66912 6.11031
head 14.9968 -3.28557 3.8666
rclavicle 4.18193e-014 4.41302e-014
rhumerus -26.2822 -8.63376 -72.719
rradius 39.4251
rwrist -17.7533
rhand -12.6653 19.293
rfingers 7.12502
rthumb 13.4159 -10.255
lclavicle 4.18193e-014 4.41302e-014
lhumerus -40.5926 8.68378 84.3986
lradius 30.9007
lwrist -8.54079
lhand 1.96122 31.343
lfingers 7.12502
lthumb 27.4675 59.3601
rfemur 10.4719 5.70684 31.6488
rtibia 18.2911
rfoot -13.6658 -3.78708
rtoes 6.59829
lfemur -32.3407 -5.34377 -8.47145
ltibia 20.971
lfoot -15.631 10.4462
ltoes -14.359
